<?xml version="1.0" encoding="UTF-8"?>
<svg version="1.1" xmlns="http://www.w3.org/2000/svg" width="256" height="256">
<path d="M0 0 C13.6109091 10.82356867 23.00572196 25.59174303 26.24609375 42.73193359 C26.39556275 46.77057926 26.15457698 50.76156989 25.93359375 54.79443359 C25.46504967 64.26604459 25.46504967 64.26604459 29.80859375 72.35693359 C30.535625 73.05173828 31.26265625 73.74654297 32.01171875 74.46240234 C34.72584337 77.21923172 36.37078124 80.23473284 38.05859375 83.66943359 C38.60128906 84.75095703 39.14398438 85.83248047 39.703125 86.94677734 C43.46352116 95.6002191 44.80623432 104.09391516 44.74609375 113.48193359 C44.74037354 114.52961914 44.73465332 115.57730469 44.72875977 116.65673828 C44.34496362 133.43005152 37.3393137 148.18474292 25.8203125 160.34912109 C11.74287954 173.37982535 -4.12598015 179.03633966 -23.10791016 179.02246094 C-24.44596732 179.02845505 -25.78402104 179.03526261 -27.12207031 179.04281616 C-30.73814247 179.06039847 -34.3541198 179.06516838 -37.97023058 179.06644773 C-40.23646419 179.06787487 -42.50267413 179.07215517 -44.76890182 179.07744217 C-52.69539656 179.09592021 -60.62182428 179.10411601 -68.54833984 179.10253906 C-75.90329725 179.10133985 -83.25796017 179.12240452 -90.61284316 179.15402639 C-96.95373668 179.18030392 -103.29453474 179.19090151 -109.63548219 179.18962824 C-113.41081706 179.18912176 -117.18589022 179.19462868 -120.9611702 179.21598434 C-124.51872452 179.23556036 -128.07577283 179.23536162 -131.63334656 179.22095108 C-133.53666685 179.21791214 -135.43998826 179.23440492 -137.3432312 179.25183105 C-155.58518602 179.12090493 -170.56190267 172.08061274 -183.75390625 159.73193359 C-195.84367823 147.17471876 -202.36970823 130.90136841 -202.25390625 113.54443359 C-202.24891113 112.54774658 -202.24391602 111.55105957 -202.23876953 110.52416992 C-201.78931044 91.26097325 -193.30771451 76.92201085 -179.64453125 63.68896484 C-176.55988298 60.8852826 -173.81366323 58.68416544 -170.00390625 56.98193359 C-165.79534116 54.06831161 -165.32774704 51.55030674 -163.828125 46.79833984 C-157.67996568 29.24813961 -144.13379898 18.36056597 -128.19921875 10.09130859 C-117.17587521 5.74196216 -107.35045534 5.46837214 -95.64453125 6.28857422 C-86.34217791 6.61171975 -82.44154269 3.88680078 -75.75390625 -2.26806641 C-52.99059306 -17.50920604 -21.9600257 -15.87700076 0 0 Z M-77.19116211 35.74365234 C-78.93612816 37.47669158 -80.69892288 39.19014178 -82.46289062 40.90380859 C-92.24873499 50.54803299 -97.92265522 59.59067106 -99.06640625 73.54443359 C-98.69219555 84.59465557 -94.75310276 93.34818351 -87.31640625 101.35693359 C-83.73006273 103.28131304 -81.61362752 102.80407839 -77.75390625 101.73193359 C-75.14494829 100.07959355 -74.79993118 98.87000838 -73.81640625 95.91943359 C-73.73341131 91.68669171 -75.21310628 90.04908911 -77.75390625 86.73193359 C-81.3810939 81.08964169 -82.42546426 76.48527104 -81.75390625 69.73193359 C-80.24414658 63.52242158 -77.28381861 59.53493244 -72.765625 55.14990234 C-71.89439751 54.27861443 -71.89439751 54.27861443 -71.00556946 53.38972473 C-69.78351243 52.17299539 -68.555387 50.96233327 -67.3215332 49.75756836 C-65.44294488 47.92093786 -63.58669503 46.06378028 -61.73242188 44.20263672 C-60.53641491 43.01712078 -59.33918927 41.83283277 -58.140625 40.64990234 C-57.59041183 40.09989059 -57.04019867 39.54987885 -56.47331238 38.98320007 C-51.54714239 34.20480723 -46.9402639 31.30379879 -39.87890625 31.29443359 C-33.55428878 31.47468911 -28.85070791 32.76977548 -24.2265625 37.19287109 C-18.99104975 43.17197841 -18.30193085 47.6809329 -18.44140625 55.47412109 C-19.18629978 63.23963616 -23.63988665 68.15300312 -28.75390625 73.73193359 C-25.45390625 77.03193359 -22.15390625 80.33193359 -18.75390625 83.73193359 C-10.0217317 79.36584632 -5.20957296 72.05201016 -2.140625 62.90380859 C-0.1913121 51.95615229 -1.31371072 41.0640144 -7.109375 31.49365234 C-13.14584987 22.90017203 -21.28536993 16.72773368 -31.75390625 14.73193359 C-52.43722997 13.2317163 -63.24179525 21.83940367 -77.19116211 35.74365234 Z M-66.62890625 68.85693359 C-68.89020554 71.53380054 -68.89020554 71.53380054 -69.44140625 74.48193359 C-68.5654972 78.62259454 -66.63898921 81.2934867 -64.1640625 84.68115234 C-61.75352077 88.18678782 -61.54242127 91.26718457 -61.44140625 95.41943359 C-61.38533203 96.91023438 -61.38533203 96.91023438 -61.328125 98.43115234 C-62.58820996 108.19970087 -69.62240297 114.22185651 -76.29736328 120.796875 C-78.00001457 122.4780909 -79.68023542 124.17961445 -81.359375 125.88427734 C-88.52011014 133.06364922 -95.02591528 139.34879106 -105.75390625 139.73193359 C-112.43659919 138.88519862 -117.45028146 136.29151669 -122.00390625 131.23193359 C-126.40842015 124.93977087 -126.64460408 119.33013143 -125.75390625 111.73193359 C-123.70884169 106.42490656 -119.89502646 102.51810064 -115.75390625 98.73193359 C-117.23112047 95.2799172 -119.19184626 93.08231423 -121.87890625 90.48193359 C-122.96558594 89.42232422 -122.96558594 89.42232422 -124.07421875 88.34130859 C-124.62851563 87.81021484 -125.1828125 87.27912109 -125.75390625 86.73193359 C-133.2939961 89.94657011 -138.07370887 97.33090956 -141.0625 104.68896484 C-144.28372472 114.20704693 -143.9229917 125.06166659 -140.015625 134.30224609 C-134.92588278 144.10354535 -127.57214589 150.81458303 -117.26953125 154.81396484 C-107.1324018 157.46088198 -95.93482005 157.07235742 -86.75390625 151.73193359 C-81.85319611 148.70333018 -77.87689934 145.20406664 -73.78125 141.16552734 C-72.81295006 140.21432762 -72.81295006 140.21432762 -71.8250885 139.24391174 C-70.46679701 137.90443164 -69.11132812 136.56208389 -67.75854492 135.21704102 C-65.70783068 133.18570283 -63.63676467 131.17674843 -61.56445312 129.16748047 C-51.46015644 119.22510031 -44.72924402 110.31886124 -44.44140625 95.66943359 C-44.42910206 84.39059579 -48.01076536 75.9327971 -55.75390625 67.73193359 C-59.95931701 65.62922821 -62.9093837 66.10772127 -66.62890625 68.85693359 Z " fill="#007DC5" transform="translate(206.75390625,43.26806640625)"/>
</svg>
